<svg width="65" height="65" fill="none" version="1.1" viewBox="0 0 16.25 16.25" xml:space="preserve" xmlns="http://www.w3.org/2000/svg"><defs><linearGradient id="linearGradient29" x1="135.56" x2="54.956" y1="69.655" y2="69.723" gradientTransform="matrix(.94486 0 0 .94486 .0020787 .0014173)" gradientUnits="userSpaceOnUse"><stop stop-color="#fff" offset="0"/><stop stop-color="#f6f7f8" offset=".35876"/><stop stop-color="#c4c9cf" offset="1"/></linearGradient><linearGradient id="linearGradient12" x1="6e-4" x2="120.22" y1="67.733" y2="67.733" gradientTransform="matrix(.94486 0 0 .94486 .0020787 .0014173)" gradientUnits="userSpaceOnUse"><stop stop-color="#fff" offset="0"/><stop stop-color="#f6f7f8" offset=".18503"/><stop stop-color="#c4c9cf" offset="1"/></linearGradient></defs><g transform="matrix(.12696 0 0 .12696 .0001268 -.00034612)" stroke-miterlimit="50" stroke-width="0"><path d="m127.47 113.08a18.904 18.904 0 0 0 0.52439-3.9858v-90.19a18.904 18.904 0 0 0-0.57566-4.5853l-56.107 18.958-0.63963 61.477z" fill="url(#linearGradient29)" style="font-variation-settings:'wdth' 75, 'wght' 900"/><path d="m113.59 0.55755a18.904 18.904 0 0 0-4.497-0.55613h-90.19a18.904 18.904 0 0 0-18.904 18.904v90.19a18.904 18.904 0 0 0 18.904 18.904h90.19a18.904 18.904 0 0 0 2.2289-0.29344l-61.006-18.802-0.31786-86.832z" fill="url(#linearGradient12)" style="font-variation-settings:'wdth' 75, 'wght' 900"/><path d="m113.59 0.55755-63.591 21.514 0.31786 86.832 61.006 18.802a18.904 18.904 0 0 0 16.15-14.625l-56.797-18.326 0.63963-61.477 56.107-18.958a18.904 18.904 0 0 0-13.831-13.763z" fill="#050708" style="font-variation-settings:'wdth' 75, 'wght' 900"/></g></svg>
